<svg xmlns="http://www.w3.org/2000/svg" viewBox="0 0 100 120" role="img" aria-label="程砚 肖像占位稿"><rect width="100" height="120" fill="#1c342c"/><path d="M9 120V96q5-22 41-22t41 22v24z" fill="#597360"/><path d="M39 66h22v22H39z" fill="#9caa8c"/><path d="M30 33q20-17 40 0v25q-4 18-20 19-17-3-20-19z" fill="#b4b99a"/><path d="M50 40v16h6m-17 9h22" fill="none" stroke="#7b8c6e" stroke-width="2"/><path d="M34 43h10m12 0h10" stroke="#374e3f" stroke-width="3"/><path d="M24 43q0-30 28-30t25 30" fill="#6e8570"/><path d="M19 43h63" stroke="#a8b392" stroke-width="6"/><path d="M31 78l19 14-8 14-13-22m40-6L50 92l8 14 13-22" fill="#314e40"/><path d="M50 93v27M18 106h19m26 0h19" stroke="#93bca7" stroke-width="3"/><rect x="61" y="91" width="15" height="5" fill="#93bca7"/><path d="M3 3h94v114H3z" fill="none" stroke="#94a57e" stroke-width="1"/></svg>