<svg xmlns="http://www.w3.org/2000/svg" viewBox="-50 -50 100 100" role="img" aria-label="机场 Lv.3"><g class="building-art building-airfield" stroke="#213b3c" stroke-width="1.7" stroke-linejoin="round" stroke-linecap="round"><ellipse cy="27" rx="38" ry="8" fill="#10272b" opacity=".7" stroke="none"/><path d="M-37 22l14-7h46l14 7-12 11h-50z" fill="#627f94" stroke="#213b3c" stroke-width="1.8"/><path d="M-32 24h64m-54 5h44" stroke="#b7dbe8" stroke-opacity=".55" stroke-width="1.2"/><path d="M-35 18V8h9v10m52 0V8h9v10" fill="#355a73"/><path d="M-32 11h4m28 0h4" stroke="#b7dbe8" stroke-width="2"/><path d="M-37 24v-5h11v5m52 0v-5h11v5" fill="#edf2eb"/><path d="M-34 20h5m58 0h5" stroke="#59cbb4" stroke-width="2"/><path d="M-13-34h27v68h-27z" fill="#283f44"/><path d="M-10-30h21m-21 3h21M0-21V22m-10 5h21m-21 3h21" stroke="#e1d9b8" stroke-width="1.6" stroke-dasharray="7 5"/><path d="M-33 7V-10q8-14 17 0V7z" fill="#edf2eb"/><path d="M-29 7V-8h10V7" fill="#355a73"/><path d="M18 7V-14h15V7" fill="#edf2eb"/><path d="M20-13v-12h12v12" fill="#355a73"/><path d="M17-27h18v5H17z" fill="#edf2eb"/><path d="M20-24h12" stroke="#99c8d0" stroke-width="2"/><path d="M0-11l3 14 7 5H3l-3 10L-3 8h-7l7-5z" fill="#59cbb4" stroke="#8bc4c3" stroke-width=".8"/><path d="M-21 30h42" stroke="#59cbb4" stroke-width="2.7"/><path d="M-12 37l3-3 3 3-3 3z" fill="#b7dbe8" stroke="none"/><path d="M-3 37l3-3 3 3-3 3z" fill="#b7dbe8" stroke="none"/><path d="M6 37l3-3 3 3-3 3z" fill="#b7dbe8" stroke="none"/></g></svg>