<svg xmlns="http://www.w3.org/2000/svg" viewBox="-50 -50 100 100" role="img" aria-label="行政城市 Lv.3"><g class="building-art building-city" stroke="#213b3c" stroke-width="1.7" stroke-linejoin="round" stroke-linecap="round"><ellipse cy="27" rx="38" ry="8" fill="#10272b" opacity=".7" stroke="none"/><path d="M-37 22l14-7h46l14 7-12 11h-50z" fill="#5d8294" stroke="#213b3c" stroke-width="1.8"/><path d="M-32 24h64m-54 5h44" stroke="#b7dae4" stroke-opacity=".55" stroke-width="1.2"/><path d="M-35 18V8h9v10m52 0V8h9v10" fill="#446e84"/><path d="M-32 11h4m28 0h4" stroke="#b7dae4" stroke-width="2"/><path d="M-37 24v-5h11v5m52 0v-5h11v5" fill="#e6eee9"/><path d="M-34 20h5m58 0h5" stroke="#e9c77c" stroke-width="2"/><path d="M-31 20v-27h18v27m3 0v-48h23v48m4 0v-35h15v35" fill="#e6eee9"/><path d="M-31-7l6-6h12v6M-10-28l7-7h16v7M17-15l5-5h10v5" fill="#e6dfc0"/><path d="M-10-28V20H-3v-48M17-15v35h6v-35" fill="#446e84"/><rect x="0" y="-23" width="3" height="4" fill="#94c6d4" stroke="none"/><rect x="6" y="-23" width="3" height="4" fill="#94c6d4" stroke="none"/><rect x="0" y="-14" width="3" height="4" fill="#94c6d4" stroke="none"/><rect x="6" y="-14" width="3" height="4" fill="#94c6d4" stroke="none"/><rect x="0" y="-5" width="3" height="4" fill="#94c6d4" stroke="none"/><rect x="6" y="-5" width="3" height="4" fill="#94c6d4" stroke="none"/><rect x="0" y="4" width="3" height="4" fill="#94c6d4" stroke="none"/><rect x="6" y="4" width="3" height="4" fill="#94c6d4" stroke="none"/><rect x="-27" y="0" width="3" height="4" fill="#94c6d4" stroke="none"/><rect x="-21" y="0" width="3" height="4" fill="#94c6d4" stroke="none"/><rect x="-27" y="9" width="3" height="4" fill="#94c6d4" stroke="none"/><rect x="-21" y="9" width="3" height="4" fill="#94c6d4" stroke="none"/><rect x="25" y="-8" width="3" height="4" fill="#94c6d4" stroke="none"/><rect x="25" y="1" width="3" height="4" fill="#94c6d4" stroke="none"/><rect x="25" y="10" width="3" height="4" fill="#94c6d4" stroke="none"/><path d="M-8 20V11H7v9" fill="#446e84"/><path d="M-32 25h64" stroke="#b7dae4" stroke-width="2"/><path d="M-21 30h42" stroke="#e9c77c" stroke-width="2.7"/><path d="M-12 37l3-3 3 3-3 3z" fill="#b7dae4" stroke="none"/><path d="M-3 37l3-3 3 3-3 3z" fill="#b7dae4" stroke="none"/><path d="M6 37l3-3 3 3-3 3z" fill="#b7dae4" stroke="none"/></g></svg>