<svg xmlns="http://www.w3.org/2000/svg" viewBox="-50 -50 100 100" role="img" aria-label="陆地能源站 Lv.3"><g class="building-art building-energyfield" stroke="#213b3c" stroke-width="1.7" stroke-linejoin="round" stroke-linecap="round"><ellipse cy="27" rx="38" ry="8" fill="#10272b" opacity=".7" stroke="none"/><path d="M-37 22l14-7h46l14 7-12 11h-50z" fill="#68633a" stroke="#213b3c" stroke-width="1.8"/><path d="M-32 24h64m-54 5h44" stroke="#ecdb78" stroke-opacity=".55" stroke-width="1.2"/><path d="M-35 18V8h9v10m52 0V8h9v10" fill="#756a40"/><path d="M-32 11h4m28 0h4" stroke="#ecdb78" stroke-width="2"/><path d="M-37 24v-5h11v5m52 0v-5h11v5" fill="#d7cb8c"/><path d="M-34 20h5m58 0h5" stroke="#ef8a78" stroke-width="2"/><path d="M-29 20V-5h20v25M10 20V-9h20v29" fill="#d7cb8c"/><path d="M-31-6h24v5h-24zM8-10h24v5H8z" fill="#756a40"/><path d="M-25 3v12m6-12v12m-6-12v12m27-15v15m6-15v15m6-15v15" stroke="#756a40" stroke-width="2"/><path d="M-20-7v-14m40 10v-14m-46 6h12m28-4h12" stroke="#756a40" stroke-width="2.5"/><path d="M-23-21v-5m6 5v-5m34 1v-5m6 5v-5" stroke="#b3d0bf" stroke-width="3"/><path d="M4-31L-8-6H2L-3 16 16-12H6l7-19z" fill="#f1dc81" stroke="#827543" stroke-width="1.2"/><path d="M-29 25h58" stroke="#c5ae62" stroke-width="3" stroke-dasharray="5 4"/><path d="M-21 30h42" stroke="#ef8a78" stroke-width="2.7"/><path d="M-12 37l3-3 3 3-3 3z" fill="#ecdb78" stroke="none"/><path d="M-3 37l3-3 3 3-3 3z" fill="#ecdb78" stroke="none"/><path d="M6 37l3-3 3 3-3 3z" fill="#ecdb78" stroke="none"/></g></svg>