<svg xmlns="http://www.w3.org/2000/svg" viewBox="-50 -50 100 100" role="img" aria-label="碎石"><g class="terrain-art terrain-rubble"><defs><radialGradient id="terrain-icon-rubble-44-tide" gradientUnits="userSpaceOnUse" cx="0" cy="0" r="44"><stop offset=".36" stop-color="#b8d8bb"/><stop offset=".7" stop-color="#94c7c7"/><stop offset="1" stop-color="#76b3c4"/></radialGradient><clipPath id="terrain-icon-rubble-44"><polygon points="38.11,-22.00 38.11,22.00 0.00,44.00 -38.11,22.00 -38.11,-22.00 -0.00,-44.00"/></clipPath></defs><g transform="scale(1)"><polygon points="38.11,-22.00 38.11,22.00 0.00,44.00 -38.11,22.00 -38.11,-22.00 -0.00,-44.00" fill="#a7afa2"/><g clip-path="url(#terrain-icon-rubble-44)" stroke-linecap="round" stroke-linejoin="round"><path d="M-33 25l6-15 15 5 5 12 24-3 13 8H-20z" fill="#34473e" opacity=".55"/><path d="M-28 8l7-17 15 5-3 16zM4-15l12-7 13 13-14 8zM5 11l14-3 9 17H-1zM-26 26l6-10 12 6-5 8z" fill="#9c9e79" stroke="#526047" stroke-width="1.3"/><path d="M-21-9l4 13-11 4M16-22l-1 16 14-3M19 8l-5 14 14 3" fill="#747f62" stroke="none"/><path d="M-16 3l5 1M9 16l5-3M-6-20l4-2M26 10l5 2" stroke="#cbc29b" stroke-width="1.4"/></g><polygon points="37.67,-21.75 37.67,21.75 0.00,43.50 -37.67,21.75 -37.67,-21.75 -0.00,-43.50" fill="none" stroke="#cad4ae" stroke-opacity=".19" stroke-width="1"/></g></g></svg>