<svg xmlns="http://www.w3.org/2000/svg" viewBox="0 0 100 100" class="" role="img" aria-label="晨潮协作联队 云帆 防空护卫舰"><g class="unit-art unit-aafrigate" data-art-role="navalaa"><path d="M20 56Q11 73 24 89M80 56Q89 73 76 89M33 93h34" fill="none" stroke="#b3e1e2" stroke-width="2" opacity=".6"/><ellipse cx="50" cy="87" rx="35" ry="8" fill="#071519" opacity=".55"/><g stroke="#152b2c" stroke-width="1.8" stroke-linejoin="round" stroke-linecap="round"><path d="M50 7Q70 20 70 53L65 88H35L30 53Q30 20 50 7z" fill="#a6b5b1"/><path d="M50 15l12 22v40H38V37z" fill="#435753"/><rect x="42" y="42" width="16" height="22" rx="3" fill="#a6b5b1"/><path d="M44 50h12" stroke="#59cbb4" stroke-width="3"/><path d="M50 53V22" stroke="#a6b5b1" stroke-width="4"/><ellipse cx="50" cy="25" rx="12" ry="6" fill="#435753" stroke="#59cbb4" stroke-width="2"/><rect x="35" y="67" width="8" height="13" rx="1" fill="#435753"/><path d="M37 69h4m-4 5h4" stroke="#59cbb4" stroke-width="2"/><path d="M37 44v18m26-18v18" stroke="#59cbb4" stroke-width="2"/><path d="M34 31v35m32-35v35" stroke="#e2e1c4" stroke-width="1.5" stroke-opacity=".6"/><path d="M46 45h8m-8 4h8" stroke="#83b6ca" stroke-width="2"/><path d="M48 22h4m-2-3v6" stroke="#dcdcc1" stroke-width="2"/><circle cx="57" cy="61" r="7" fill="#a6b5b1"/><path d="M55 60V47m4 13V47" stroke="#a6b5b1" stroke-width="3"/><path d="M53 48h8" stroke="#e0c391" stroke-width="2"/><rect x="43" y="95" width="5" height="3" rx="1" fill="#59cbb4" stroke="none"/></g></g></svg>