<svg xmlns="http://www.w3.org/2000/svg" viewBox="0 0 100 100" class="" role="img" aria-label="晨潮协作联队 长钉 反装甲歼击车"><g class="unit-art unit-destroyer" data-art-role="重型反装甲"><ellipse cx="50" cy="87" rx="35" ry="8" fill="#071519" opacity=".55"/><g stroke="#152b2c" stroke-width="1.8" stroke-linejoin="round" stroke-linecap="round"><rect x="18" y="32" width="16" height="49" rx="4" fill="#142324" stroke="#081719"/><rect x="20" y="34" width="12" height="45" rx="3" fill="#30413f"/><path d="M20 37h12" stroke="#718176" stroke-width="1.4"/><path d="M20 43h12" stroke="#718176" stroke-width="1.4"/><path d="M20 49h12" stroke="#718176" stroke-width="1.4"/><path d="M20 55h12" stroke="#718176" stroke-width="1.4"/><path d="M20 61h12" stroke="#718176" stroke-width="1.4"/><path d="M20 67h12" stroke="#718176" stroke-width="1.4"/><path d="M20 73h12" stroke="#718176" stroke-width="1.4"/><path d="M32 36v41" stroke="#0b1718" stroke-width="2"/><rect x="66" y="32" width="16" height="49" rx="4" fill="#142324" stroke="#081719"/><rect x="68" y="34" width="12" height="45" rx="3" fill="#30413f"/><path d="M68 37h12" stroke="#718176" stroke-width="1.4"/><path d="M68 43h12" stroke="#718176" stroke-width="1.4"/><path d="M68 49h12" stroke="#718176" stroke-width="1.4"/><path d="M68 55h12" stroke="#718176" stroke-width="1.4"/><path d="M68 61h12" stroke="#718176" stroke-width="1.4"/><path d="M68 67h12" stroke="#718176" stroke-width="1.4"/><path d="M68 73h12" stroke="#718176" stroke-width="1.4"/><path d="M80 36v41" stroke="#0b1718" stroke-width="2"/><path d="M34 36h32l6 40-22 10-22-10z" fill="#a6b5b1"/><path d="M38 45h24l4 24H34z" fill="#435753"/><path d="M44 47V8h12v39" fill="#a6b5b1"/><path d="M48 43V10m4 33V10" stroke="#435753" stroke-width="2"/><path d="M43 11h14" stroke="#59cbb4" stroke-width="3"/><path d="M32 68l-9 12m45-12 9 12" stroke="#a6b5b1" stroke-width="6"/><circle cx="50" cy="60" r="4" fill="none" stroke="#59cbb4" stroke-width="2.6"/><path d="M34 37v35m32-35v35" fill="none" stroke="#ecedd2" stroke-opacity=".37" stroke-width="1.3"/><path d="M38 79h6m12 0h6" stroke="#59cbb4" stroke-width="3"/><circle cx="36" cy="73" r="1.7" fill="#f5e9c2"/><circle cx="64" cy="73" r="1.7" fill="#f5e9c2"/><path d="M35 66l-12 18m42-18 12 18M43 10h14" stroke="#d3d7bb" stroke-width="3"/><path d="M48 18v21m4-21v21" stroke="#7fd0d0" stroke-width="1.2"/></g></g></svg>