<svg xmlns="http://www.w3.org/2000/svg" viewBox="0 0 100 100" class="" role="img" aria-label="晨潮协作联队 壁垒 重装步兵"><g class="unit-art unit-heavyinfantry" data-art-role="infantry"><ellipse cx="50" cy="87" rx="35" ry="8" fill="#071519" opacity=".55"/><g stroke="#152b2c" stroke-width="1.8" stroke-linejoin="round" stroke-linecap="round"><g transform="translate(28 34)"><rect x="-8" y="12" width="16" height="19" rx="3" fill="#435753"/><path d="M-6 28l-4 16m14-16 5 16" stroke="#435753" stroke-width="6"/><path d="M-13 44h8m11 0h8" stroke="#152626" stroke-width="5"/><path d="M-9 12h18l-2 19H-7z" fill="#a6b5b1"/><path d="M-10 17l-7 9m27-9 7 7" stroke="#a6b5b1" stroke-width="5"/><circle cy="4" r="8" fill="#435753"/><path d="M-8 4q0-13 16 0" fill="#a6b5b1"/><path d="M-6 0q6-5 12 0" stroke="#e5e9d6" stroke-width="1.4" fill="none"/><path d="M-4 5h8" stroke="#97bfd0" stroke-width="2"/><path d="M-7 15h4m6 0h4" stroke="#59cbb4" stroke-width="3"/><path d="M0 13v16m-7-7h14" stroke="#435753" stroke-width="1.7"/><path d="M11 9v25" stroke="#192a27" stroke-width="4"/><path d="M9 13h6m-2 15h4" stroke="#ccd0b8" stroke-width="2"/></g><g transform="translate(70 34)"><rect x="-8" y="12" width="16" height="19" rx="3" fill="#435753"/><path d="M-6 28l-4 16m14-16 5 16" stroke="#435753" stroke-width="6"/><path d="M-13 44h8m11 0h8" stroke="#152626" stroke-width="5"/><path d="M-9 12h18l-2 19H-7z" fill="#a6b5b1"/><path d="M-10 17l-7 9m27-9 7 7" stroke="#a6b5b1" stroke-width="5"/><circle cy="4" r="8" fill="#435753"/><path d="M-8 4q0-13 16 0" fill="#a6b5b1"/><path d="M-6 0q6-5 12 0" stroke="#e5e9d6" stroke-width="1.4" fill="none"/><path d="M-4 5h8" stroke="#97bfd0" stroke-width="2"/><path d="M-7 15h4m6 0h4" stroke="#59cbb4" stroke-width="3"/><path d="M0 13v16m-7-7h14" stroke="#435753" stroke-width="1.7"/><path d="M11 9v25" stroke="#192a27" stroke-width="4"/><path d="M9 13h6m-2 15h4" stroke="#ccd0b8" stroke-width="2"/></g><g transform="translate(49 16)"><rect x="-8" y="12" width="16" height="19" rx="3" fill="#435753"/><path d="M-6 28l-4 16m14-16 5 16" stroke="#435753" stroke-width="6"/><path d="M-13 44h8m11 0h8" stroke="#152626" stroke-width="5"/><path d="M-9 12h18l-2 19H-7z" fill="#a6b5b1"/><path d="M-10 17l-7 9m27-9 7 7" stroke="#a6b5b1" stroke-width="5"/><circle cy="4" r="8" fill="#435753"/><path d="M-8 4q0-13 16 0" fill="#a6b5b1"/><path d="M-6 0q6-5 12 0" stroke="#e5e9d6" stroke-width="1.4" fill="none"/><path d="M-4 5h8" stroke="#97bfd0" stroke-width="2"/><path d="M-7 15h4m6 0h4" stroke="#59cbb4" stroke-width="3"/><path d="M0 13v16m-7-7h14" stroke="#435753" stroke-width="1.7"/><path d="M11 9v25" stroke="#192a27" stroke-width="4"/><path d="M9 13h6m-2 15h4" stroke="#ccd0b8" stroke-width="2"/></g><path d="M20 44h18v29H20zm41-4h18v29H61z" fill="#435753"/><path d="M23 48h12m29-4h12" stroke="#59cbb4" stroke-width="3"/><path d="M41 29h16v13H41z" fill="#435753"/><path d="M20 41l19 4-2 32-8 8-9-8z" fill="#a6b5b1"/><path d="M23 46l12 2-1 26-5 5-5-5z" fill="#435753"/><path d="M25 52h8m-4-4v18" stroke="#59cbb4" stroke-width="2.5"/><path d="M61 38h20v10H61" fill="#a6b5b1" stroke="#dce2c9"/><rect x="35" y="95" width="5" height="3" rx="1" fill="#59cbb4" stroke="none"/><rect x="43" y="95" width="5" height="3" rx="1" fill="#59cbb4" stroke="none"/><rect x="51" y="95" width="5" height="3" rx="1" fill="#59cbb4" stroke="none"/></g></g></svg>