<svg xmlns="http://www.w3.org/2000/svg" viewBox="0 0 100 100" class="" role="img" aria-label="赤岩防卫 磐石 重型攻坚坦克"><g class="unit-art unit-heavy" data-art-role="armor"><ellipse cx="50" cy="87" rx="35" ry="8" fill="#071519" opacity=".55"/><g stroke="#152b2c" stroke-width="1.8" stroke-linejoin="round" stroke-linecap="round"><rect x="12" y="32" width="19" height="49" rx="4" fill="#142324" stroke="#081719"/><rect x="14" y="34" width="15" height="45" rx="3" fill="#30413f"/><path d="M14 37h15" stroke="#718176" stroke-width="1.4"/><path d="M14 43h15" stroke="#718176" stroke-width="1.4"/><path d="M14 49h15" stroke="#718176" stroke-width="1.4"/><path d="M14 55h15" stroke="#718176" stroke-width="1.4"/><path d="M14 61h15" stroke="#718176" stroke-width="1.4"/><path d="M14 67h15" stroke="#718176" stroke-width="1.4"/><path d="M14 73h15" stroke="#718176" stroke-width="1.4"/><path d="M29 36v41" stroke="#0b1718" stroke-width="2"/><rect x="69" y="32" width="19" height="49" rx="4" fill="#142324" stroke="#081719"/><rect x="71" y="34" width="15" height="45" rx="3" fill="#30413f"/><path d="M71 37h15" stroke="#718176" stroke-width="1.4"/><path d="M71 43h15" stroke="#718176" stroke-width="1.4"/><path d="M71 49h15" stroke="#718176" stroke-width="1.4"/><path d="M71 55h15" stroke="#718176" stroke-width="1.4"/><path d="M71 61h15" stroke="#718176" stroke-width="1.4"/><path d="M71 67h15" stroke="#718176" stroke-width="1.4"/><path d="M71 73h15" stroke="#718176" stroke-width="1.4"/><path d="M86 36v41" stroke="#0b1718" stroke-width="2"/><path d="M29 27h42l8 53-29 10-29-10z" fill="#b2988c"/><path d="M30 40h40l3 34H27z" fill="#604b45"/><path d="M41 47V13m18 34V13" stroke="#b2988c" stroke-width="9"/><path d="M36 13h10m8 0h10" stroke="#ef8a78" stroke-width="3"/><path d="M30 76h40" stroke="#ef8a78" stroke-width="3"/><path d="M50 55l5 9H45z" fill="none" stroke="#ef8a78" stroke-width="2.6"/><path d="M34 37v35m32-35v35" fill="none" stroke="#ecedd2" stroke-opacity=".37" stroke-width="1.3"/><path d="M38 79h6m12 0h6" stroke="#ef8a78" stroke-width="3"/><circle cx="36" cy="73" r="1.7" fill="#f5e9c2"/><circle cx="64" cy="73" r="1.7" fill="#f5e9c2"/><path d="M29 37h11m20 0h11M27 66h10m26 0h10M37 82h26" stroke="#e2dec5" stroke-width="3"/><rect x="45" y="51" width="10" height="18" rx="2" fill="#b2988c"/><path d="M44 50h12m-12 21h12" stroke="#ef8a78" stroke-width="2"/><rect x="35" y="95" width="5" height="3" rx="1" fill="#ef8a78" stroke="none"/><rect x="43" y="95" width="5" height="3" rx="1" fill="#ef8a78" stroke="none"/><rect x="51" y="95" width="5" height="3" rx="1" fill="#ef8a78" stroke="none"/></g></g></svg>