<svg xmlns="http://www.w3.org/2000/svg" viewBox="0 0 100 100" class="" role="img" aria-label="晨潮协作联队 脉冲 电子战平台"><g class="unit-art unit-jammer" data-art-role="电子战"><ellipse cx="50" cy="87" rx="35" ry="8" fill="#071519" opacity=".55"/><g stroke="#152b2c" stroke-width="1.8" stroke-linejoin="round" stroke-linecap="round"><path d="M34 41L19 30m47 11 15-11M30 59H12m58 0h18M35 73 20 86m45-13 15 13" fill="none" stroke="#a6b5b1" stroke-width="7"/><circle cx="50" cy="58" r="26" fill="#435753"/><circle cx="50" cy="56" r="19" fill="#a6b5b1"/><circle cx="50" cy="56" r="12" fill="#435753"/><path d="M50 44V14M37 47 27 22m36 25 10-25" stroke="#a6b5b1" stroke-width="3"/><circle cx="50" cy="14" r="4" fill="#59cbb4"/><circle cx="27" cy="22" r="3" fill="#59cbb4"/><circle cx="73" cy="22" r="3" fill="#59cbb4"/><circle cx="50" cy="60" r="4" fill="none" stroke="#59cbb4" stroke-width="2.6"/><circle cx="50" cy="56" r="7" fill="#92e4cf"/><path d="M50 42v-9m-12 18-9-5m33 5 9-5M44 67l-4 8m16-8 4 8" stroke="#59cbb4" stroke-width="2"/><path d="M43 8q7-8 14 0" fill="none" stroke="#59cbb4" stroke-width="2"/></g></g></svg>