<svg xmlns="http://www.w3.org/2000/svg" viewBox="0 0 100 100" class="" role="img" aria-label="赤岩防卫 火萤 轻型榴弹炮"><g class="unit-art unit-lightartillery" data-art-role="artillery"><ellipse cx="50" cy="87" rx="35" ry="8" fill="#071519" opacity=".55"/><g stroke="#152b2c" stroke-width="1.8" stroke-linejoin="round" stroke-linecap="round"><rect x="20" y="52" width="15" height="29" rx="4" fill="#142324" stroke="#081719"/><rect x="22" y="54" width="11" height="25" rx="3" fill="#30413f"/><path d="M22 57h11" stroke="#718176" stroke-width="1.4"/><path d="M22 63h11" stroke="#718176" stroke-width="1.4"/><path d="M22 69h11" stroke="#718176" stroke-width="1.4"/><path d="M22 75h11" stroke="#718176" stroke-width="1.4"/><path d="M33 56v21" stroke="#0b1718" stroke-width="2"/><rect x="65" y="52" width="15" height="29" rx="4" fill="#142324" stroke="#081719"/><rect x="67" y="54" width="11" height="25" rx="3" fill="#30413f"/><path d="M67 57h11" stroke="#718176" stroke-width="1.4"/><path d="M67 63h11" stroke="#718176" stroke-width="1.4"/><path d="M67 69h11" stroke="#718176" stroke-width="1.4"/><path d="M67 75h11" stroke="#718176" stroke-width="1.4"/><path d="M78 56v21" stroke="#0b1718" stroke-width="2"/><path d="M29 75L19 88m52-13 10 13" stroke="#b2988c" stroke-width="5"/><path d="M34 47h32v30H34z" fill="#b2988c"/><circle cx="50" cy="59" r="12" fill="#604b45"/><path d="M46 54V18h8v36" fill="#b2988c"/><path d="M43 18h14" stroke="#ef8a78" stroke-width="3"/><path d="M34 37v35m32-35v35" fill="none" stroke="#ecedd2" stroke-opacity=".37" stroke-width="1.3"/><path d="M38 79h6m12 0h6" stroke="#ef8a78" stroke-width="3"/><circle cx="36" cy="73" r="1.7" fill="#f5e9c2"/><circle cx="64" cy="73" r="1.7" fill="#f5e9c2"/><path d="M39 64h7m8 0h7M40 69h20" stroke="#d9dbbe" stroke-width="2"/><path d="M44 24h12" stroke="#ef8a78" stroke-width="3"/><rect x="43" y="95" width="5" height="3" rx="1" fill="#ef8a78" stroke="none"/></g></g></svg>